<?xml version="1.0" encoding="UTF-8" standalone="no"?>
<!-- Created with Inkscape (http://www.inkscape.org/) -->

<svg
   xmlns:dc="http://purl.org/dc/elements/1.1/"
   xmlns:cc="http://creativecommons.org/ns#"
   xmlns:rdf="http://www.w3.org/1999/02/22-rdf-syntax-ns#"
   xmlns:svg="http://www.w3.org/2000/svg"
   xmlns="http://www.w3.org/2000/svg"
   xmlns:sodipodi="http://sodipodi.sourceforge.net/DTD/sodipodi-0.dtd"
   xmlns:inkscape="http://www.inkscape.org/namespaces/inkscape"
   id="svg2"
   version="1.1"
   inkscape:version="0.48.4 r9939"
   width="272.5"
   height="310"
   xml:space="preserve"
   sodipodi:docname="cdiag20.pdf"><metadata
     id="metadata8"><rdf:RDF><cc:Work
         rdf:about=""><dc:format>image/svg+xml</dc:format><dc:type
           rdf:resource="http://purl.org/dc/dcmitype/StillImage" /><dc:title></dc:title></cc:Work></rdf:RDF></metadata><defs
     id="defs6"><clipPath
       clipPathUnits="userSpaceOnUse"
       id="clipPath18"><path
         d="M 0,0 612,0 612,792 0,792 0,0 z"
         id="path20" /></clipPath><clipPath
       clipPathUnits="userSpaceOnUse"
       id="clipPath28"><path
         d="m 536,5720 0,-3520 5024,0 0,3520 -5024,0 z"
         id="path30" /></clipPath><clipPath
       clipPathUnits="userSpaceOnUse"
       id="clipPath64"><path
         d="m 1192,5456 0,-2880 3896,0 0,2880 -3896,0 z"
         id="path66" /></clipPath><clipPath
       clipPathUnits="userSpaceOnUse"
       id="clipPath98"><path
         d="m 536,5720 0,-3520 5024,0 0,3520 -5024,0 z"
         id="path100" /></clipPath></defs><sodipodi:namedview
     pagecolor="#ffffff"
     bordercolor="#666666"
     borderopacity="1"
     objecttolerance="10"
     gridtolerance="10"
     guidetolerance="10"
     inkscape:pageopacity="0"
     inkscape:pageshadow="2"
     inkscape:window-width="1066"
     inkscape:window-height="725"
     id="namedview4"
     showgrid="false"
     inkscape:zoom="1.5225806"
     inkscape:cx="138.87712"
     inkscape:cy="136.42347"
     inkscape:window-x="0"
     inkscape:window-y="25"
     inkscape:window-maximized="0"
     inkscape:current-layer="g10" /><g
     id="g10"
     inkscape:groupmode="layer"
     inkscape:label="cdiag2"
     transform="matrix(1.25,0,0,-1.25,0,310)"><g
       id="g24"
       transform="matrix(0.1,0,0,0.1,-147,-304)"><g
         id="g26"
         clip-path="url(#clipPath28)"><path
           d="m 3056,5456 c 0,-8.84 -7.16,-16 -16,-16 -8.84,0 -16,7.16 -16,16 0,8.84 7.16,16 16,16 8.84,0 16,-7.16 16,-16"
           style="fill:#0000ff;fill-opacity:1;fill-rule:nonzero;stroke:none"
           id="path32"
           inkscape:connector-curvature="0" /><path
           d="m 2728,4984 c 0,-8.84 -7.16,-16 -16,-16 -8.84,0 -16,7.16 -16,16 0,8.84 7.16,16 16,16 8.84,0 16,-7.16 16,-16"
           style="fill:#0000ff;fill-opacity:1;fill-rule:nonzero;stroke:none"
           id="path34"
           inkscape:connector-curvature="0" /><path
           d="m 3384,4984 c 0,-8.84 -7.16,-16 -16,-16 -8.84,0 -16,7.16 -16,16 0,8.84 7.16,16 16,16 8.84,0 16,-7.16 16,-16"
           style="fill:#0000ff;fill-opacity:1;fill-rule:nonzero;stroke:none"
           id="path36"
           inkscape:connector-curvature="0" /><path
           d="m 2400,4504 c 0,-8.84 -7.16,-16 -16,-16 -8.84,0 -16,7.16 -16,16 0,8.84 7.16,16 16,16 8.84,0 16,-7.16 16,-16"
           style="fill:#0000ff;fill-opacity:1;fill-rule:nonzero;stroke:none"
           id="path38"
           inkscape:connector-curvature="0" /><path
           d="m 3056,4504 c 0,-8.84 -7.16,-16 -16,-16 -8.84,0 -16,7.16 -16,16 0,8.84 7.16,16 16,16 8.84,0 16,-7.16 16,-16"
           style="fill:#0000ff;fill-opacity:1;fill-rule:nonzero;stroke:none"
           id="path40"
           inkscape:connector-curvature="0" /><path
           d="m 2056,4024 c 0,-8.84 -7.16,-16 -16,-16 -8.84,0 -16,7.16 -16,16 0,8.84 7.16,16 16,16 8.84,0 16,-7.16 16,-16"
           style="fill:#0000ff;fill-opacity:1;fill-rule:nonzero;stroke:none"
           id="path42"
           inkscape:connector-curvature="0" /><path
           d="m 2704,4024 c 0,-8.84 -7.16,-16 -16,-16 -8.84,0 -16,7.16 -16,16 0,8.84 7.16,16 16,16 8.84,0 16,-7.16 16,-16"
           style="fill:#0000ff;fill-opacity:1;fill-rule:nonzero;stroke:none"
           id="path44"
           inkscape:connector-curvature="0" /><path
           d="m 3160,4024 c 0,-8.84 -7.16,-16 -16,-16 -8.84,0 -16,7.16 -16,16 0,8.84 7.16,16 16,16 8.84,0 16,-7.16 16,-16"
           style="fill:#0000ff;fill-opacity:1;fill-rule:nonzero;stroke:none"
           id="path46"
           inkscape:connector-curvature="0" /><path
           d="m 3648,4024 c 0,-8.84 -7.16,-16 -16,-16 -8.84,0 -16,7.16 -16,16 0,8.84 7.16,16 16,16 8.84,0 16,-7.16 16,-16"
           style="fill:#0000ff;fill-opacity:1;fill-rule:nonzero;stroke:none"
           id="path48"
           inkscape:connector-curvature="0" /><path
           d="m 1904,3544 c 0,-8.84 -7.16,-16 -16,-16 -8.84,0 -16,7.16 -16,16 0,8.84 7.16,16 16,16 8.84,0 16,-7.16 16,-16"
           style="fill:#0000ff;fill-opacity:1;fill-rule:nonzero;stroke:none"
           id="path50"
           inkscape:connector-curvature="0" /><path
           d="m 2856,3544 c 0,-8.84 -7.16,-16 -16,-16 -8.84,0 -16,7.16 -16,16 0,8.84 7.16,16 16,16 8.84,0 16,-7.16 16,-16"
           style="fill:#0000ff;fill-opacity:1;fill-rule:nonzero;stroke:none"
           id="path52"
           inkscape:connector-curvature="0" /><path
           d="m 1512,3064 c 0,-8.84 -7.16,-16 -16,-16 -8.84,0 -16,7.16 -16,16 0,8.84 7.16,16 16,16 8.84,0 16,-7.16 16,-16"
           style="fill:#0000ff;fill-opacity:1;fill-rule:nonzero;stroke:none"
           id="path54"
           inkscape:connector-curvature="0" /><path
           d="m 2120,3064 c 0,-8.84 -7.16,-16 -16,-16 -8.84,0 -16,7.16 -16,16 0,8.84 7.16,16 16,16 8.84,0 16,-7.16 16,-16"
           style="fill:#0000ff;fill-opacity:1;fill-rule:nonzero;stroke:none"
           id="path56"
           inkscape:connector-curvature="0" /><path
           d="m 3032,3064 c 0,-8.84 -7.16,-16 -16,-16 -8.84,0 -16,7.16 -16,16 0,8.84 7.16,16 16,16 8.84,0 16,-7.16 16,-16"
           style="fill:#0000ff;fill-opacity:1;fill-rule:nonzero;stroke:none"
           id="path58"
           inkscape:connector-curvature="0" /></g></g><g
       id="g60"
       transform="matrix(0.1,0,0,0.1,-147,-304)"><g
         id="g62"
         clip-path="url(#clipPath64)"><path
           d="m 2712,4984 328,472"
           style="fill:none;stroke:#ff0000;stroke-width:5;stroke-linecap:butt;stroke-linejoin:round;stroke-miterlimit:10;stroke-opacity:1;stroke-dasharray:none"
           id="path68"
           inkscape:connector-curvature="0" /><path
           d="m 3368,4984 -328,472"
           style="fill:none;stroke:#ff0000;stroke-width:5;stroke-linecap:butt;stroke-linejoin:round;stroke-miterlimit:10;stroke-opacity:1;stroke-dasharray:none"
           id="path70"
           inkscape:connector-curvature="0" /><path
           d="m 2384,4504 328,480"
           style="fill:none;stroke:#ff0000;stroke-width:5;stroke-linecap:butt;stroke-linejoin:round;stroke-miterlimit:10;stroke-opacity:1;stroke-dasharray:none"
           id="path72"
           inkscape:connector-curvature="0" /><path
           d="m 3040,4504 -328,480"
           style="fill:none;stroke:#ff0000;stroke-width:5;stroke-linecap:butt;stroke-linejoin:round;stroke-miterlimit:10;stroke-opacity:1;stroke-dasharray:none"
           id="path74"
           inkscape:connector-curvature="0" /><path
           d="m 2040,4024 344,480"
           style="fill:none;stroke:#ff0000;stroke-width:5;stroke-linecap:butt;stroke-linejoin:round;stroke-miterlimit:10;stroke-opacity:1;stroke-dasharray:none"
           id="path76"
           inkscape:connector-curvature="0" /><path
           d="m 2688,4024 352,480"
           style="fill:none;stroke:#ff0000;stroke-width:5;stroke-linecap:butt;stroke-linejoin:round;stroke-miterlimit:10;stroke-opacity:1;stroke-dasharray:none"
           id="path78"
           inkscape:connector-curvature="0" /><path
           d="m 3144,4024 -104,480"
           style="fill:none;stroke:#ff0000;stroke-width:5;stroke-linecap:butt;stroke-linejoin:round;stroke-miterlimit:10;stroke-opacity:1;stroke-dasharray:none"
           id="path80"
           inkscape:connector-curvature="0" /><path
           d="m 3632,4024 -592,480"
           style="fill:none;stroke:#ff0000;stroke-width:5;stroke-linecap:butt;stroke-linejoin:round;stroke-miterlimit:10;stroke-opacity:1;stroke-dasharray:none"
           id="path82"
           inkscape:connector-curvature="0" /><path
           d="m 1888,3544 152,480"
           style="fill:none;stroke:#ff0000;stroke-width:5;stroke-linecap:butt;stroke-linejoin:round;stroke-miterlimit:10;stroke-opacity:1;stroke-dasharray:none"
           id="path84"
           inkscape:connector-curvature="0" /><path
           d="m 2840,3544 -152,480"
           style="fill:none;stroke:#ff0000;stroke-width:5;stroke-linecap:butt;stroke-linejoin:round;stroke-miterlimit:10;stroke-opacity:1;stroke-dasharray:none"
           id="path86"
           inkscape:connector-curvature="0" /><path
           d="m 1496,3064 392,480"
           style="fill:none;stroke:#ff0000;stroke-width:5;stroke-linecap:butt;stroke-linejoin:round;stroke-miterlimit:10;stroke-opacity:1;stroke-dasharray:none"
           id="path88"
           inkscape:connector-curvature="0" /><path
           d="m 2104,3064 -216,480"
           style="fill:none;stroke:#ff0000;stroke-width:5;stroke-linecap:butt;stroke-linejoin:round;stroke-miterlimit:10;stroke-opacity:1;stroke-dasharray:none"
           id="path90"
           inkscape:connector-curvature="0" /><path
           d="m 3016,3064 -176,480"
           style="fill:none;stroke:#ff0000;stroke-width:5;stroke-linecap:butt;stroke-linejoin:round;stroke-miterlimit:10;stroke-opacity:1;stroke-dasharray:none"
           id="path92"
           inkscape:connector-curvature="0" /></g></g><path
       d="m 135.4,211.2 17.6,0 0,13.6 -17.6,0 0,-13.6 z"
       style="fill:#e6e6e6;fill-opacity:1;fill-rule:evenodd;stroke:none"
       id="path102"
       inkscape:connector-curvature="0" /><g
       id="g104"
       transform="translate(-147,-304)"><text
         transform="matrix(1,0,0,-1,284,518.4)"
         id="text106"><tspan
           style="font-size:10px;font-variant:normal;font-weight:normal;writing-mode:lr-tb;fill:#ff0000;fill-opacity:1;fill-rule:nonzero;stroke:none;font-family:Helvetica;-inkscape-font-specification:Helvetica"
           x="0 5.5599999"
           y="0"
           sodipodi:role="line"
           id="tspan108">1:</tspan></text>
</g><g
       id="g110"
       transform="translate(-147,-304)"><text
         transform="matrix(1,0,0,-1,292,518.4)"
         id="text112"><tspan
           style="font-size:10px;font-variant:normal;font-weight:normal;writing-mode:lr-tb;fill:#0000ff;fill-opacity:1;fill-rule:nonzero;stroke:none;font-family:Helvetica;-inkscape-font-specification:Helvetica"
           x="0"
           y="0"
           id="tspan114">C</tspan></text>
</g><path
       d="m 168.2,211.2 17.6,0 0,13.6 -17.6,0 0,-13.6 z"
       style="fill:#e6e6e6;fill-opacity:1;fill-rule:evenodd;stroke:none"
       id="path116"
       inkscape:connector-curvature="0" /><g
       id="g118"
       transform="translate(-147,-304)"><text
         transform="matrix(1,0,0,-1,316.8,518.4)"
         id="text120"><tspan
           style="font-size:10px;font-variant:normal;font-weight:normal;writing-mode:lr-tb;fill:#ff0000;fill-opacity:1;fill-rule:nonzero;stroke:none;font-family:Helvetica;-inkscape-font-specification:Helvetica"
           x="0 5.5599999"
           y="0"
           sodipodi:role="line"
           id="tspan122">9:</tspan></text>
</g><g
       id="g124"
       transform="translate(-147,-304)"><text
         transform="matrix(1,0,0,-1,324.8,518.4)"
         id="text126"><tspan
           style="font-size:10px;font-variant:normal;font-weight:normal;writing-mode:lr-tb;fill:#0000ff;fill-opacity:1;fill-rule:nonzero;stroke:none;font-family:Helvetica;-inkscape-font-specification:Helvetica"
           x="0"
           y="0"
           id="tspan128">G</tspan></text>
</g><path
       d="m 102.6,163.2 15.2,0 0,13.6 -15.2,0 0,-13.6 z"
       style="fill:#e6e6e6;fill-opacity:1;fill-rule:evenodd;stroke:none"
       id="path130"
       inkscape:connector-curvature="0" /><g
       id="g132"
       transform="translate(-147,-304)"><text
         transform="matrix(1,0,0,-1,251.2,470.4)"
         id="text134"><tspan
           style="font-size:10px;font-variant:normal;font-weight:normal;writing-mode:lr-tb;fill:#ff0000;fill-opacity:1;fill-rule:nonzero;stroke:none;font-family:Helvetica;-inkscape-font-specification:Helvetica"
           x="0 5.5599999"
           y="0"
           sodipodi:role="line"
           id="tspan136">7:</tspan></text>
</g><g
       id="g138"
       transform="translate(-147,-304)"><text
         transform="matrix(1,0,0,-1,259.2,470.4)"
         id="text140"><tspan
           style="font-size:10px;font-variant:normal;font-weight:normal;writing-mode:lr-tb;fill:#0000ff;fill-opacity:1;fill-rule:nonzero;stroke:none;font-family:Helvetica;-inkscape-font-specification:Helvetica"
           x="0"
           y="0"
           id="tspan142">J</tspan></text>
</g><path
       d="m 135.4,163.2 16,0 0,13.6 -16,0 0,-13.6 z"
       style="fill:#e6e6e6;fill-opacity:1;fill-rule:evenodd;stroke:none"
       id="path144"
       inkscape:connector-curvature="0" /><g
       id="g146"
       transform="translate(-147,-304)"><text
         transform="matrix(1,0,0,-1,284,470.4)"
         id="text148"><tspan
           style="font-size:10px;font-variant:normal;font-weight:normal;writing-mode:lr-tb;fill:#ff0000;fill-opacity:1;fill-rule:nonzero;stroke:none;font-family:Helvetica;-inkscape-font-specification:Helvetica"
           x="0 5.5599999"
           y="0"
           sodipodi:role="line"
           id="tspan150">4:</tspan></text>
</g><g
       id="g152"
       transform="translate(-147,-304)"><text
         transform="matrix(1,0,0,-1,292,470.4)"
         id="text154"><tspan
           style="font-size:10px;font-variant:normal;font-weight:normal;writing-mode:lr-tb;fill:#0000ff;fill-opacity:1;fill-rule:nonzero;stroke:none;font-family:Helvetica;-inkscape-font-specification:Helvetica"
           x="0"
           y="0"
           id="tspan156">F</tspan></text>
</g><path
       d="m 69,115.2 17.6,0 0,13.6 -17.6,0 0,-13.6 z"
       style="fill:#e6e6e6;fill-opacity:1;fill-rule:evenodd;stroke:none"
       id="path158"
       inkscape:connector-curvature="0" /><g
       id="g160"
       transform="translate(-147,-304)"><text
         transform="matrix(1,0,0,-1,217.6,422.4)"
         id="text162"><tspan
           style="font-size:10px;font-variant:normal;font-weight:normal;writing-mode:lr-tb;fill:#ff0000;fill-opacity:1;fill-rule:nonzero;stroke:none;font-family:Helvetica;-inkscape-font-specification:Helvetica"
           x="0 5.5599999"
           y="0"
           sodipodi:role="line"
           id="tspan164">7:</tspan></text>
</g><g
       id="g166"
       transform="translate(-147,-304)"><text
         transform="matrix(1,0,0,-1,225.6,422.4)"
         id="text168"><tspan
           style="font-size:10px;font-variant:normal;font-weight:normal;writing-mode:lr-tb;fill:#0000ff;fill-opacity:1;fill-rule:nonzero;stroke:none;font-family:Helvetica;-inkscape-font-specification:Helvetica"
           x="0"
           y="0"
           id="tspan170">D</tspan></text>
</g><path
       d="m 133.8,115.2 17.6,0 0,13.6 -17.6,0 0,-13.6 z"
       style="fill:#e6e6e6;fill-opacity:1;fill-rule:evenodd;stroke:none"
       id="path172"
       inkscape:connector-curvature="0" /><g
       id="g174"
       transform="translate(-147,-304)"><text
         transform="matrix(1,0,0,-1,282.4,422.4)"
         id="text176"><tspan
           style="font-size:10px;font-variant:normal;font-weight:normal;writing-mode:lr-tb;fill:#ff0000;fill-opacity:1;fill-rule:nonzero;stroke:none;font-family:Helvetica;-inkscape-font-specification:Helvetica"
           x="0 5.5599999"
           y="0"
           sodipodi:role="line"
           id="tspan178">8:</tspan></text>
</g><g
       id="g180"
       transform="translate(-147,-304)"><text
         transform="matrix(1,0,0,-1,290.4,422.4)"
         id="text182"><tspan
           style="font-size:10px;font-variant:normal;font-weight:normal;writing-mode:lr-tb;fill:#0000ff;fill-opacity:1;fill-rule:nonzero;stroke:none;font-family:Helvetica;-inkscape-font-specification:Helvetica"
           x="0"
           y="0"
           id="tspan184">D</tspan></text>
</g><path
       d="m 157,115.2 17.6,0 0,13.6 -17.6,0 0,-13.6 z"
       style="fill:#e6e6e6;fill-opacity:1;fill-rule:evenodd;stroke:none"
       id="path186"
       inkscape:connector-curvature="0" /><g
       id="g188"
       transform="translate(-147,-304)"><text
         transform="matrix(1,0,0,-1,305.6,422.4)"
         id="text190"><tspan
           style="font-size:10px;font-variant:normal;font-weight:normal;writing-mode:lr-tb;fill:#ff0000;fill-opacity:1;fill-rule:nonzero;stroke:none;font-family:Helvetica;-inkscape-font-specification:Helvetica"
           x="0 5.5599999"
           y="0"
           sodipodi:role="line"
           id="tspan192">5:</tspan></text>
</g><g
       id="g194"
       transform="translate(-147,-304)"><text
         transform="matrix(1,0,0,-1,313.6,422.4)"
         id="text196"><tspan
           style="font-size:10px;font-variant:normal;font-weight:normal;writing-mode:lr-tb;fill:#0000ff;fill-opacity:1;fill-rule:nonzero;stroke:none;font-family:Helvetica;-inkscape-font-specification:Helvetica"
           x="0"
           y="0"
           id="tspan198">G</tspan></text>
</g><path
       d="m 181,115.2 16.8,0 0,13.6 -16.8,0 0,-13.6 z"
       style="fill:#e6e6e6;fill-opacity:1;fill-rule:evenodd;stroke:none"
       id="path200"
       inkscape:connector-curvature="0" /><g
       id="g202"
       transform="translate(-147,-304)"><text
         transform="matrix(1,0,0,-1,329.6,422.4)"
         id="text204"><tspan
           style="font-size:10px;font-variant:normal;font-weight:normal;writing-mode:lr-tb;fill:#ff0000;fill-opacity:1;fill-rule:nonzero;stroke:none;font-family:Helvetica;-inkscape-font-specification:Helvetica"
           x="0 5.5599999"
           y="0"
           sodipodi:role="line"
           id="tspan206">9:</tspan></text>
</g><g
       id="g208"
       transform="translate(-147,-304)"><text
         transform="matrix(1,0,0,-1,337.6,422.4)"
         id="text210"><tspan
           style="font-size:10px;font-variant:normal;font-weight:normal;writing-mode:lr-tb;fill:#0000ff;fill-opacity:1;fill-rule:nonzero;stroke:none;font-family:Helvetica;-inkscape-font-specification:Helvetica"
           x="0"
           y="0"
           id="tspan212">A</tspan></text>
</g><path
       d="m 44.2,67.2 15.2,0 0,13.6 -15.2,0 0,-13.6 z"
       style="fill:#e6e6e6;fill-opacity:1;fill-rule:evenodd;stroke:none"
       id="path214"
       inkscape:connector-curvature="0" /><g
       id="g216"
       transform="translate(-147,-304)"><text
         transform="matrix(1,0,0,-1,192.8,374.4)"
         id="text218"><tspan
           style="font-size:10px;font-variant:normal;font-weight:normal;writing-mode:lr-tb;fill:#ff0000;fill-opacity:1;fill-rule:nonzero;stroke:none;font-family:Helvetica;-inkscape-font-specification:Helvetica"
           x="0 5.5599999"
           y="0"
           sodipodi:role="line"
           id="tspan220">8:</tspan></text>
</g><g
       id="g222"
       transform="translate(-147,-304)"><text
         transform="matrix(1,0,0,-1,200.8,374.4)"
         id="text224"><tspan
           style="font-size:10px;font-variant:normal;font-weight:normal;writing-mode:lr-tb;fill:#0000ff;fill-opacity:1;fill-rule:nonzero;stroke:none;font-family:Helvetica;-inkscape-font-specification:Helvetica"
           x="0"
           y="0"
           id="tspan226">J</tspan></text>
</g><path
       d="m 124.2,67.2 17.6,0 0,13.6 -17.6,0 0,-13.6 z"
       style="fill:#e6e6e6;fill-opacity:1;fill-rule:evenodd;stroke:none"
       id="path228"
       inkscape:connector-curvature="0" /><g
       id="g230"
       transform="translate(-147,-304)"><text
         transform="matrix(1,0,0,-1,272.8,374.4)"
         id="text232"><tspan
           style="font-size:10px;font-variant:normal;font-weight:normal;writing-mode:lr-tb;fill:#ff0000;fill-opacity:1;fill-rule:nonzero;stroke:none;font-family:Helvetica;-inkscape-font-specification:Helvetica"
           x="0 5.5599999"
           y="0"
           sodipodi:role="line"
           id="tspan234">7:</tspan></text>
</g><g
       id="g236"
       transform="translate(-147,-304)"><text
         transform="matrix(1,0,0,-1,280.8,374.4)"
         id="text238"><tspan
           style="font-size:10px;font-variant:normal;font-weight:normal;writing-mode:lr-tb;fill:#0000ff;fill-opacity:1;fill-rule:nonzero;stroke:none;font-family:Helvetica;-inkscape-font-specification:Helvetica"
           x="0"
           y="0"
           id="tspan240">H</tspan></text>
</g><path
       d="m 17,19.2 16.8,0 0,13.6 -16.8,0 0,-13.6 z"
       style="fill:#e6e6e6;fill-opacity:1;fill-rule:evenodd;stroke:none"
       id="path242"
       inkscape:connector-curvature="0" /><g
       id="g244"
       transform="translate(-147,-304)"><text
         transform="matrix(1,0,0,-1,165.6,326.4)"
         id="text246"><tspan
           style="font-size:10px;font-variant:normal;font-weight:normal;writing-mode:lr-tb;fill:#ff0000;fill-opacity:1;fill-rule:nonzero;stroke:none;font-family:Helvetica;-inkscape-font-specification:Helvetica"
           x="0 5.5599999"
           y="0"
           sodipodi:role="line"
           id="tspan248">9:</tspan></text>
</g><g
       id="g250"
       transform="translate(-147,-304)"><text
         transform="matrix(1,0,0,-1,173.6,326.4)"
         id="text252"><tspan
           style="font-size:10px;font-variant:normal;font-weight:normal;writing-mode:lr-tb;fill:#0000ff;fill-opacity:1;fill-rule:nonzero;stroke:none;font-family:Helvetica;-inkscape-font-specification:Helvetica"
           x="0"
           y="0"
           id="tspan254">A</tspan></text>
</g><path
       d="m 47.4,19.2 16.8,0 0,13.6 -16.8,0 0,-13.6 z"
       style="fill:#e6e6e6;fill-opacity:1;fill-rule:evenodd;stroke:none"
       id="path256"
       inkscape:connector-curvature="0" /><g
       id="g258"
       transform="translate(-147,-304)"><text
         transform="matrix(1,0,0,-1,196,326.4)"
         id="text260"><tspan
           style="font-size:10px;font-variant:normal;font-weight:normal;writing-mode:lr-tb;fill:#ff0000;fill-opacity:1;fill-rule:nonzero;stroke:none;font-family:Helvetica;-inkscape-font-specification:Helvetica"
           x="0 5.5599999"
           y="0"
           sodipodi:role="line"
           id="tspan262">5:</tspan></text>
</g><g
       id="g264"
       transform="translate(-147,-304)"><text
         transform="matrix(1,0,0,-1,204,326.4)"
         id="text266"><tspan
           style="font-size:10px;font-variant:normal;font-weight:normal;writing-mode:lr-tb;fill:#0000ff;fill-opacity:1;fill-rule:nonzero;stroke:none;font-family:Helvetica;-inkscape-font-specification:Helvetica"
           x="0"
           y="0"
           id="tspan268">B</tspan></text>
</g><path
       d="m 140.2,19.2 16.8,0 0,13.6 -16.8,0 0,-13.6 z"
       style="fill:#e6e6e6;fill-opacity:1;fill-rule:evenodd;stroke:none"
       id="path270"
       inkscape:connector-curvature="0" /><g
       id="g272"
       transform="translate(-147,-304)"><text
         transform="matrix(1,0,0,-1,288.8,326.4)"
         id="text274"><tspan
           style="font-size:10px;font-variant:normal;font-weight:normal;writing-mode:lr-tb;fill:#ff0000;fill-opacity:1;fill-rule:nonzero;stroke:none;font-family:Helvetica;-inkscape-font-specification:Helvetica"
           x="0 5.5599999"
           y="0"
           sodipodi:role="line"
           id="tspan276">9:</tspan></text>
</g><g
       id="g278"
       transform="translate(-147,-304)"><text
         transform="matrix(1,0,0,-1,296.8,326.4)"
         id="text280"><tspan
           style="font-size:10px;font-variant:normal;font-weight:normal;writing-mode:lr-tb;fill:#0000ff;fill-opacity:1;fill-rule:nonzero;stroke:none;font-family:Helvetica;-inkscape-font-specification:Helvetica"
           x="0"
           y="0"
           id="tspan282">A</tspan></text>
</g><path
       d="m 158.6,241.6 c 0,-0.884 -0.716,-1.6 -1.6,-1.6 -0.884,0 -1.6,0.716 -1.6,1.6 0,0.884 0.716,1.6 1.6,1.6 0.884,0 1.6,-0.716 1.6,-1.6"
       style="fill:#0000ff;fill-opacity:1;fill-rule:nonzero;stroke:none"
       id="path284"
       inkscape:connector-curvature="0" /><path
       d="m 125.8,194.4 c 0,-0.884 -0.716,-1.6 -1.6,-1.6 -0.884,0 -1.6,0.716 -1.6,1.6 0,0.884 0.716,1.6 1.6,1.6 0.884,0 1.6,-0.716 1.6,-1.6"
       style="fill:#0000ff;fill-opacity:1;fill-rule:nonzero;stroke:none"
       id="path286"
       inkscape:connector-curvature="0" /><path
       d="m 191.4,194.4 c 0,-0.884 -0.716,-1.6 -1.6,-1.6 -0.884,0 -1.6,0.716 -1.6,1.6 0,0.884 0.716,1.6 1.6,1.6 0.884,0 1.6,-0.716 1.6,-1.6"
       style="fill:#0000ff;fill-opacity:1;fill-rule:nonzero;stroke:none"
       id="path288"
       inkscape:connector-curvature="0" /><path
       d="m 93,146.4 c 0,-0.884 -0.716,-1.6 -1.6,-1.6 -0.884,0 -1.6,0.716 -1.6,1.6 0,0.884 0.716,1.6 1.6,1.6 0.884,0 1.6,-0.716 1.6,-1.6"
       style="fill:#0000ff;fill-opacity:1;fill-rule:nonzero;stroke:none"
       id="path290"
       inkscape:connector-curvature="0" /><path
       d="m 158.6,146.4 c 0,-0.884 -0.716,-1.6 -1.6,-1.6 -0.884,0 -1.6,0.716 -1.6,1.6 0,0.884 0.716,1.6 1.6,1.6 0.884,0 1.6,-0.716 1.6,-1.6"
       style="fill:#0000ff;fill-opacity:1;fill-rule:nonzero;stroke:none"
       id="path292"
       inkscape:connector-curvature="0" /><path
       d="m 58.6,98.4 c 0,-0.884 -0.716,-1.6 -1.6,-1.6 -0.884,0 -1.6,0.716 -1.6,1.6 0,0.884 0.716,1.6 1.6,1.6 0.884,0 1.6,-0.716 1.6,-1.6"
       style="fill:#0000ff;fill-opacity:1;fill-rule:nonzero;stroke:none"
       id="path294"
       inkscape:connector-curvature="0" /><path
       d="m 123.4,98.4 c 0,-0.884 -0.716,-1.6 -1.6,-1.6 -0.884,0 -1.6,0.716 -1.6,1.6 0,0.884 0.716,1.6 1.6,1.6 0.884,0 1.6,-0.716 1.6,-1.6"
       style="fill:#0000ff;fill-opacity:1;fill-rule:nonzero;stroke:none"
       id="path296"
       inkscape:connector-curvature="0" /><path
       d="m 169,98.4 c 0,-0.884 -0.716,-1.6 -1.6,-1.6 -0.884,0 -1.6,0.716 -1.6,1.6 0,0.884 0.716,1.6 1.6,1.6 0.884,0 1.6,-0.716 1.6,-1.6"
       style="fill:#0000ff;fill-opacity:1;fill-rule:nonzero;stroke:none"
       id="path298"
       inkscape:connector-curvature="0" /><path
       d="m 217.8,98.4 c 0,-0.884 -0.716,-1.6 -1.6,-1.6 -0.884,0 -1.6,0.716 -1.6,1.6 0,0.884 0.716,1.6 1.6,1.6 0.884,0 1.6,-0.716 1.6,-1.6"
       style="fill:#0000ff;fill-opacity:1;fill-rule:nonzero;stroke:none"
       id="path300"
       inkscape:connector-curvature="0" /><path
       d="m 43.4,50.4 c 0,-0.884 -0.716,-1.6 -1.6,-1.6 -0.884,0 -1.6,0.716 -1.6,1.6 0,0.884 0.716,1.6 1.6,1.6 0.884,0 1.6,-0.716 1.6,-1.6"
       style="fill:#0000ff;fill-opacity:1;fill-rule:nonzero;stroke:none"
       id="path302"
       inkscape:connector-curvature="0" /><path
       d="m 138.6,50.4 c 0,-0.884 -0.716,-1.6 -1.6,-1.6 -0.884,0 -1.6,0.716 -1.6,1.6 0,0.884 0.716,1.6 1.6,1.6 0.884,0 1.6,-0.716 1.6,-1.6"
       style="fill:#0000ff;fill-opacity:1;fill-rule:nonzero;stroke:none"
       id="path304"
       inkscape:connector-curvature="0" /><path
       d="M 4.2,2.4 C 4.2,1.516 3.484,0.8 2.6,0.8 1.716,0.8 1,1.516 1,2.4 1,3.284 1.716,4 2.6,4 3.484,4 4.2,3.284 4.2,2.4"
       style="fill:#0000ff;fill-opacity:1;fill-rule:nonzero;stroke:none"
       id="path306"
       inkscape:connector-curvature="0" /><path
       d="M 65,2.4 C 65,1.516 64.284,0.8 63.4,0.8 62.516,0.8 61.8,1.516 61.8,2.4 61.8,3.284 62.516,4 63.4,4 64.284,4 65,3.284 65,2.4"
       style="fill:#0000ff;fill-opacity:1;fill-rule:nonzero;stroke:none"
       id="path308"
       inkscape:connector-curvature="0" /><path
       d="m 156.2,2.4 c 0,-0.884 -0.716,-1.6 -1.6,-1.6 -0.884,0 -1.6,0.716 -1.6,1.6 0,0.884 0.716,1.6 1.6,1.6 0.884,0 1.6,-0.716 1.6,-1.6"
       style="fill:#0000ff;fill-opacity:1;fill-rule:nonzero;stroke:none"
       id="path310"
       inkscape:connector-curvature="0" /><path
       d="m 161.8,241.6 c 0,-2.651 -2.149,-4.8 -4.8,-4.8 -2.651,0 -4.8,2.149 -4.8,4.8 0,2.651 2.149,4.8 4.8,4.8 2.651,0 4.8,-2.149 4.8,-4.8"
       style="fill:#ffffff;fill-opacity:1;fill-rule:nonzero;stroke:none"
       id="path312"
       inkscape:connector-curvature="0" /><path
       d="m 162.6,241.6 c 0,-3.093 -2.507,-5.6 -5.6,-5.6 -3.093,0 -5.6,2.507 -5.6,5.6 0,3.093 2.507,5.6 5.6,5.6 3.093,0 5.6,-2.507 5.6,-5.6"
       style="fill:none;stroke:#000000;stroke-width:0.5;stroke-linecap:butt;stroke-linejoin:round;stroke-miterlimit:10;stroke-opacity:1;stroke-dasharray:none"
       id="path314"
       inkscape:connector-curvature="0" /><g
       id="g316"
       transform="translate(-147,-304)"><text
         transform="matrix(1,0,0,-1,301.6,543.2)"
         id="text318"><tspan
           style="font-size:10px;font-variant:normal;font-weight:normal;writing-mode:lr-tb;fill:#000000;fill-opacity:1;fill-rule:nonzero;stroke:none;font-family:Helvetica;-inkscape-font-specification:Helvetica"
           x="0"
           y="0"
           id="tspan320">0</tspan></text>
</g></g></svg>