<?xml version="1.0" encoding="UTF-8" standalone="no"?>
<!-- Created with Inkscape (http://www.inkscape.org/) -->

<svg
   xmlns:dc="http://purl.org/dc/elements/1.1/"
   xmlns:cc="http://creativecommons.org/ns#"
   xmlns:rdf="http://www.w3.org/1999/02/22-rdf-syntax-ns#"
   xmlns:svg="http://www.w3.org/2000/svg"
   xmlns="http://www.w3.org/2000/svg"
   xmlns:sodipodi="http://sodipodi.sourceforge.net/DTD/sodipodi-0.dtd"
   xmlns:inkscape="http://www.inkscape.org/namespaces/inkscape"
   id="svg2"
   version="1.1"
   inkscape:version="0.48.4 r9939"
   width="338.75"
   height="341.25"
   xml:space="preserve"
   sodipodi:docname="penetration25.pdf"><metadata
     id="metadata8"><rdf:RDF><cc:Work
         rdf:about=""><dc:format>image/svg+xml</dc:format><dc:type
           rdf:resource="http://purl.org/dc/dcmitype/StillImage" /><dc:title></dc:title></cc:Work></rdf:RDF></metadata><defs
     id="defs6"><clipPath
       clipPathUnits="userSpaceOnUse"
       id="clipPath18"><path
         d="M 0,0 612,0 612,792 0,792 0,0 z"
         id="path20" /></clipPath><clipPath
       clipPathUnits="userSpaceOnUse"
       id="clipPath28"><path
         d="m 960,5527.51 0,-3150.01 4200.01,0 0,3150.01 -4200.01,0 z"
         id="path30" /></clipPath><clipPath
       clipPathUnits="userSpaceOnUse"
       id="clipPath156"><path
         d="m 1845,5295.01 0,-2580.01 2580.01,0 0,2580.01 -2580.01,0 z"
         id="path158" /></clipPath><clipPath
       clipPathUnits="userSpaceOnUse"
       id="clipPath168"><path
         d="m 960,5527.51 0,-3150.01 4200.01,0 0,3150.01 -4200.01,0 z"
         id="path170" /></clipPath><clipPath
       clipPathUnits="userSpaceOnUse"
       id="clipPath180"><path
         d="m 1845,5295.01 0,-2580.01 2580.01,0 0,2580.01 -2580.01,0 z"
         id="path182" /></clipPath><clipPath
       clipPathUnits="userSpaceOnUse"
       id="clipPath256"><path
         d="m 960,5527.51 0,-3150.01 4200.01,0 0,3150.01 -4200.01,0 z"
         id="path258" /></clipPath></defs><sodipodi:namedview
     pagecolor="#ffffff"
     bordercolor="#666666"
     borderopacity="1"
     objecttolerance="10"
     gridtolerance="10"
     guidetolerance="10"
     inkscape:pageopacity="0"
     inkscape:pageshadow="2"
     inkscape:window-width="1239"
     inkscape:window-height="652"
     id="namedview4"
     showgrid="false"
     showguides="true"
     inkscape:guide-bbox="true"
     inkscape:zoom="3.9121395"
     inkscape:cx="88.859911"
     inkscape:cy="178.36868"
     inkscape:window-x="0"
     inkscape:window-y="25"
     inkscape:window-maximized="0"
     inkscape:current-layer="g10" /><g
     id="g10"
     inkscape:groupmode="layer"
     inkscape:label="penetration1"
     transform="matrix(1.25,0,0,-1.25,0,341.25)"><g
       clip-path="url(#clipPath28)"
       id="g26"
       transform="matrix(0.1,0,0,0.1,-174,-260)"><path
         inkscape:connector-curvature="0"
         id="path32"
         style="fill:#bfbfbf;fill-opacity:1;fill-rule:evenodd;stroke:none"
         d="m 1845,2722.5 2572.5,0 0,2572.51 -2572.5,0 0,-2572.51 z" /><path
         inkscape:connector-curvature="0"
         id="path34"
         style="fill:none;stroke:#bfbfbf;stroke-width:5.00001001;stroke-linecap:butt;stroke-linejoin:round;stroke-miterlimit:10;stroke-opacity:1;stroke-dasharray:none"
         d="m 1845,2722.5 0,2572.51 2572.51,0 0,-2572.51 -2572.51,0" /><path
         inkscape:connector-curvature="0"
         id="path36"
         style="fill:none;stroke:#000000;stroke-width:5.00001001;stroke-linecap:butt;stroke-linejoin:round;stroke-miterlimit:10;stroke-opacity:1;stroke-dasharray:none"
         d="m 1845,2722.5 2572.51,0" /><path
         inkscape:connector-curvature="0"
         id="path38"
         style="fill:none;stroke:#000000;stroke-width:5.00001001;stroke-linecap:butt;stroke-linejoin:round;stroke-miterlimit:10;stroke-opacity:1;stroke-dasharray:none"
         d="m 1845,2722.5 0,2572.51" /><path
         inkscape:connector-curvature="0"
         id="path40"
         style="fill:none;stroke:#000000;stroke-width:5.00001001;stroke-linecap:butt;stroke-linejoin:round;stroke-miterlimit:10;stroke-opacity:1;stroke-dasharray:none"
         d="m 1845,2722.5 0,30" /><g
         transform="scale(10,10)"
         id="g42"><text
           id="text44"
           transform="matrix(1,0,0,-1,179.25,260.25)"><tspan
             id="tspan46"
             sodipodi:role="line"
             y="0"
             x="0 5.8400002"
             style="font-size:10px;font-variant:normal;font-weight:normal;writing-mode:lr-tb;fill:#000000;fill-opacity:1;fill-rule:nonzero;stroke:none;font-family:Helvetica;-inkscape-font-specification:Helvetica">−1</tspan></text>
</g><path
         inkscape:connector-curvature="0"
         id="path48"
         style="fill:none;stroke:#000000;stroke-width:5.00001001;stroke-linecap:butt;stroke-linejoin:round;stroke-miterlimit:10;stroke-opacity:1;stroke-dasharray:none"
         d="m 2272.5,2722.5 0,30" /><g
         transform="scale(10,10)"
         id="g50"><text
           id="text52"
           transform="matrix(1,0,0,-1,225,260.25)"><tspan
             id="tspan54"
             y="0"
             x="0"
             style="font-size:10px;font-variant:normal;font-weight:normal;writing-mode:lr-tb;fill:#000000;fill-opacity:1;fill-rule:nonzero;stroke:none;font-family:Helvetica;-inkscape-font-specification:Helvetica">0</tspan></text>
</g><path
         inkscape:connector-curvature="0"
         id="path56"
         style="fill:none;stroke:#000000;stroke-width:5.00001001;stroke-linecap:butt;stroke-linejoin:round;stroke-miterlimit:10;stroke-opacity:1;stroke-dasharray:none"
         d="m 2707.5,2722.5 0,30" /><g
         transform="scale(10,10)"
         id="g58"><text
           id="text60"
           transform="matrix(1,0,0,-1,268.5,260.25)"><tspan
             id="tspan62"
             y="0"
             x="0"
             style="font-size:10px;font-variant:normal;font-weight:normal;writing-mode:lr-tb;fill:#000000;fill-opacity:1;fill-rule:nonzero;stroke:none;font-family:Helvetica;-inkscape-font-specification:Helvetica">1</tspan></text>
</g><path
         inkscape:connector-curvature="0"
         id="path64"
         style="fill:none;stroke:#000000;stroke-width:5.00001001;stroke-linecap:butt;stroke-linejoin:round;stroke-miterlimit:10;stroke-opacity:1;stroke-dasharray:none"
         d="m 3135,2722.5 0,30" /><g
         transform="scale(10,10)"
         id="g66"><text
           id="text68"
           transform="matrix(1,0,0,-1,311.25,260.25)"><tspan
             id="tspan70"
             y="0"
             x="0"
             style="font-size:10px;font-variant:normal;font-weight:normal;writing-mode:lr-tb;fill:#000000;fill-opacity:1;fill-rule:nonzero;stroke:none;font-family:Helvetica;-inkscape-font-specification:Helvetica">2</tspan></text>
</g><path
         inkscape:connector-curvature="0"
         id="path72"
         style="fill:none;stroke:#000000;stroke-width:5.00001001;stroke-linecap:butt;stroke-linejoin:round;stroke-miterlimit:10;stroke-opacity:1;stroke-dasharray:none"
         d="m 3562.51,2722.5 0,30" /><g
         transform="scale(10,10)"
         id="g74"><text
           id="text76"
           transform="matrix(1,0,0,-1,354.001,260.25)"><tspan
             id="tspan78"
             y="0"
             x="0"
             style="font-size:10px;font-variant:normal;font-weight:normal;writing-mode:lr-tb;fill:#000000;fill-opacity:1;fill-rule:nonzero;stroke:none;font-family:Helvetica;-inkscape-font-specification:Helvetica">3</tspan></text>
</g><path
         inkscape:connector-curvature="0"
         id="path80"
         style="fill:none;stroke:#000000;stroke-width:5.00001001;stroke-linecap:butt;stroke-linejoin:round;stroke-miterlimit:10;stroke-opacity:1;stroke-dasharray:none"
         d="m 3990.01,2722.5 0,30" /><g
         transform="scale(10,10)"
         id="g82"><text
           id="text84"
           transform="matrix(1,0,0,-1,396.751,260.25)"><tspan
             id="tspan86"
             y="0"
             x="0"
             style="font-size:10px;font-variant:normal;font-weight:normal;writing-mode:lr-tb;fill:#000000;fill-opacity:1;fill-rule:nonzero;stroke:none;font-family:Helvetica;-inkscape-font-specification:Helvetica">4</tspan></text>
</g><path
         inkscape:connector-curvature="0"
         id="path88"
         style="fill:none;stroke:#000000;stroke-width:5.00001001;stroke-linecap:butt;stroke-linejoin:round;stroke-miterlimit:10;stroke-opacity:1;stroke-dasharray:none"
         d="m 4417.51,2722.5 0,30" /><g
         transform="scale(10,10)"
         id="g90"><text
           id="text92"
           transform="matrix(1,0,0,-1,439.501,260.25)"><tspan
             id="tspan94"
             y="0"
             x="0"
             style="font-size:10px;font-variant:normal;font-weight:normal;writing-mode:lr-tb;fill:#000000;fill-opacity:1;fill-rule:nonzero;stroke:none;font-family:Helvetica;-inkscape-font-specification:Helvetica">5</tspan></text>
</g><path
         inkscape:connector-curvature="0"
         id="path96"
         style="fill:none;stroke:#000000;stroke-width:5.00001001;stroke-linecap:butt;stroke-linejoin:round;stroke-miterlimit:10;stroke-opacity:1;stroke-dasharray:none"
         d="m 1845,2722.5 30,0" /><g
         transform="scale(10,10)"
         id="g98"><text
           id="text100"
           transform="matrix(1,0,0,-1,174,268.5)"><tspan
             id="tspan102"
             sodipodi:role="line"
             y="0"
             x="0 5.8400002"
             style="font-size:10px;font-variant:normal;font-weight:normal;writing-mode:lr-tb;fill:#000000;fill-opacity:1;fill-rule:nonzero;stroke:none;font-family:Helvetica;-inkscape-font-specification:Helvetica">−3</tspan></text>
</g><path
         inkscape:connector-curvature="0"
         id="path104"
         style="fill:none;stroke:#000000;stroke-width:5.00001001;stroke-linecap:butt;stroke-linejoin:round;stroke-miterlimit:10;stroke-opacity:1;stroke-dasharray:none"
         d="m 1845,3150 30,0" /><g
         transform="scale(10,10)"
         id="g106"><text
           id="text108"
           transform="matrix(1,0,0,-1,174,311.25)"><tspan
             id="tspan110"
             sodipodi:role="line"
             y="0"
             x="0 5.8400002"
             style="font-size:10px;font-variant:normal;font-weight:normal;writing-mode:lr-tb;fill:#000000;fill-opacity:1;fill-rule:nonzero;stroke:none;font-family:Helvetica;-inkscape-font-specification:Helvetica">−2</tspan></text>
</g><path
         inkscape:connector-curvature="0"
         id="path112"
         style="fill:none;stroke:#000000;stroke-width:5.00001001;stroke-linecap:butt;stroke-linejoin:round;stroke-miterlimit:10;stroke-opacity:1;stroke-dasharray:none"
         d="m 1845,3577.51 30,0" /><g
         transform="scale(10,10)"
         id="g114"><text
           id="text116"
           transform="matrix(1,0,0,-1,174,354.001)"><tspan
             id="tspan118"
             sodipodi:role="line"
             y="0"
             x="0 5.8400002"
             style="font-size:10px;font-variant:normal;font-weight:normal;writing-mode:lr-tb;fill:#000000;fill-opacity:1;fill-rule:nonzero;stroke:none;font-family:Helvetica;-inkscape-font-specification:Helvetica">−1</tspan></text>
</g><path
         inkscape:connector-curvature="0"
         id="path120"
         style="fill:none;stroke:#000000;stroke-width:5.00001001;stroke-linecap:butt;stroke-linejoin:round;stroke-miterlimit:10;stroke-opacity:1;stroke-dasharray:none"
         d="m 1845,4012.51 30,0" /><g
         transform="scale(10,10)"
         id="g122"><text
           id="text124"
           transform="matrix(1,0,0,-1,177,397.501)"><tspan
             id="tspan126"
             y="0"
             x="0"
             style="font-size:10px;font-variant:normal;font-weight:normal;writing-mode:lr-tb;fill:#000000;fill-opacity:1;fill-rule:nonzero;stroke:none;font-family:Helvetica;-inkscape-font-specification:Helvetica">0</tspan></text>
</g><path
         inkscape:connector-curvature="0"
         id="path128"
         style="fill:none;stroke:#000000;stroke-width:5.00001001;stroke-linecap:butt;stroke-linejoin:round;stroke-miterlimit:10;stroke-opacity:1;stroke-dasharray:none"
         d="m 1845,4440.01 30,0" /><g
         transform="scale(10,10)"
         id="g130"><text
           id="text132"
           transform="matrix(1,0,0,-1,177,440.251)"><tspan
             id="tspan134"
             y="0"
             x="0"
             style="font-size:10px;font-variant:normal;font-weight:normal;writing-mode:lr-tb;fill:#000000;fill-opacity:1;fill-rule:nonzero;stroke:none;font-family:Helvetica;-inkscape-font-specification:Helvetica">1</tspan></text>
</g><path
         inkscape:connector-curvature="0"
         id="path136"
         style="fill:none;stroke:#000000;stroke-width:5.00001001;stroke-linecap:butt;stroke-linejoin:round;stroke-miterlimit:10;stroke-opacity:1;stroke-dasharray:none"
         d="m 1845,4867.51 30,0" /><g
         transform="scale(10,10)"
         id="g138"><text
           id="text140"
           transform="matrix(1,0,0,-1,177,483.001)"><tspan
             id="tspan142"
             y="0"
             x="0"
             style="font-size:10px;font-variant:normal;font-weight:normal;writing-mode:lr-tb;fill:#000000;fill-opacity:1;fill-rule:nonzero;stroke:none;font-family:Helvetica;-inkscape-font-specification:Helvetica">2</tspan></text>
</g><path
         inkscape:connector-curvature="0"
         id="path144"
         style="fill:none;stroke:#000000;stroke-width:5.00001001;stroke-linecap:butt;stroke-linejoin:round;stroke-miterlimit:10;stroke-opacity:1;stroke-dasharray:none"
         d="m 1845,5295.01 30,0" /><g
         transform="scale(10,10)"
         id="g146"><text
           id="text148"
           transform="matrix(1,0,0,-1,177,525.751)"><tspan
             id="tspan150"
             y="0"
             x="0"
             style="font-size:10px;font-variant:normal;font-weight:normal;writing-mode:lr-tb;fill:#000000;fill-opacity:1;fill-rule:nonzero;stroke:none;font-family:Helvetica;-inkscape-font-specification:Helvetica">3</tspan></text>
</g></g><g
       clip-path="url(#clipPath156)"
       id="g154"
       transform="matrix(0.1,0,0,0.1,-174,-260)"><path
         inkscape:connector-curvature="0"
         id="path160"
         style="fill:#ffffff;fill-opacity:1;fill-rule:nonzero;stroke:none"
         d="m 2272.5,2722.5 2145,0 0,2572.51 -2145,0 0,-2572.51 z" /><path
         inkscape:connector-curvature="0"
         id="path162"
         style="fill:none;stroke:#000000;stroke-width:5.00001001;stroke-linecap:butt;stroke-linejoin:round;stroke-miterlimit:10;stroke-opacity:1;stroke-dasharray:5, 40;stroke-dashoffset:0"
         d="m 2272.5,3577.51 0,862.5" /></g><g
       clip-path="url(#clipPath168)"
       id="g166"
       transform="matrix(0.1,0,0,0.1,-174,-260)"><path
         inkscape:connector-curvature="0"
         id="path172"
         style="fill:#000000;fill-opacity:1;fill-rule:nonzero;stroke:none"
         d="m 2287.5,3577.51 c 0,-8.28 -6.71,-15 -15,-15 -8.28,0 -15,6.72 -15,15 0,8.28 6.72,15 15,15 8.29,0 15,-6.72 15,-15" /><path
         inkscape:connector-curvature="0"
         id="path174"
         style="fill:#000000;fill-opacity:1;fill-rule:nonzero;stroke:none"
         d="m 2287.5,4440.01 c 0,-8.28 -6.71,-15 -15,-15 -8.28,0 -15,6.72 -15,15 0,8.28 6.72,15 15,15 8.29,0 15,-6.72 15,-15" /></g><path
       d="m 53.25,12.25 0,85.501"
       style="fill:none;stroke:#000000;stroke-width:0.50000101;stroke-linecap:butt;stroke-linejoin:round;stroke-miterlimit:10;stroke-opacity:1;stroke-dasharray:none"
       id="path184"
       inkscape:connector-curvature="0" /><path
       d="m 53.25,184.001 0,85.5"
       style="fill:none;stroke:#000000;stroke-width:0.50000101;stroke-linecap:butt;stroke-linejoin:round;stroke-miterlimit:10;stroke-opacity:1;stroke-dasharray:none"
       id="path186"
       inkscape:connector-curvature="0" /><path
       d="m 97,162.251 c 0,-0.138 -0.112,-0.25 -0.25,-0.25 -0.137,0 -0.25,0.112 -0.25,0.25 0,0.138 0.113,0.25 0.25,0.25 0.138,0 0.25,-0.112 0.25,-0.25"
       style="fill:#238b23;fill-opacity:1;fill-rule:nonzero;stroke:none"
       id="path188"
       inkscape:connector-curvature="0" /><path
       d="m 50.25,94.751 0,20.25 -0.75,0.75 0,15.75 -0.75,0.75 0,21 -0.75,0.75 0,17.25 0.75,0.75 0,14.25"
       style="fill:none;stroke:#238b23;stroke-width:0.50000101;stroke-linecap:butt;stroke-linejoin:round;stroke-miterlimit:10;stroke-opacity:1;stroke-dasharray:none"
       id="path190"
       inkscape:connector-curvature="0" /><path
       d="m 97,162.251 c 0,-0.138 -0.112,-0.25 -0.25,-0.25 -0.137,0 -0.25,0.112 -0.25,0.25 0,0.138 0.113,0.25 0.25,0.25 0.138,0 0.25,-0.112 0.25,-0.25"
       style="fill:#3f943f;fill-opacity:1;fill-rule:nonzero;stroke:none"
       id="path192"
       inkscape:connector-curvature="0" /><path
       d="m 47.25,90.251 0,11.25 -0.75,0.75 0,9 -0.75,0.75 0,8.25 -0.75,0.75 0,7.5 -0.75,0.75 0,9.75 -0.75,0.75 0,12.75 -0.75,0.75 0,18.75 0.75,0.75 0,12.75 0.75,0.75 0,2.25 8.943271,-4.77837 -0.04286,-85.86554 z"
       style="fill:#0f642a;stroke:#3f943f;stroke-width:0.50000100999999997;stroke-linecap:butt;stroke-linejoin:round;stroke-miterlimit:10;stroke-opacity:1;stroke-dasharray:none;fill-opacity:0.42786071"
       id="path194"
       inkscape:connector-curvature="0"
       sodipodi:nodetypes="ccccccccccccccccccccc" /><path
       d="m 97,162.251 c 0,-0.138 -0.112,-0.25 -0.25,-0.25 -0.137,0 -0.25,0.112 -0.25,0.25 0,0.138 0.113,0.25 0.25,0.25 0.138,0 0.25,-0.112 0.25,-0.25"
       style="fill:#579c57;fill-opacity:1;fill-rule:nonzero;stroke:none"
       id="path196"
       inkscape:connector-curvature="0" /><path
       d="m 45,85.001 0,0.75 -0.75,0.75 0,6.75 -0.75,0.75 0,6.75 -0.75,0.75 0,6 -0.75,0.75 0,5.25 -0.75,0.75 0,5.25 -0.75,0.75 0,5.25 -0.75,0.75 0,6 -0.75,0.75 0,7.5 -0.75,0.75 0,9.75 -0.75,0.75 0,21 0.75,0.75 0,10.5 0.75,0.75 0,6"
       style="fill:none;stroke:#579c57;stroke-width:0.50000101;stroke-linecap:butt;stroke-linejoin:round;stroke-miterlimit:10;stroke-opacity:1;stroke-dasharray:none"
       id="path198"
       inkscape:connector-curvature="0" /><path
       d="m 97,162.251 c 0,-0.138 -0.112,-0.25 -0.25,-0.25 -0.137,0 -0.25,0.112 -0.25,0.25 0,0.138 0.113,0.25 0.25,0.25 0.138,0 0.25,-0.112 0.25,-0.25"
       style="fill:#6aa36a;fill-opacity:1;fill-rule:nonzero;stroke:none"
       id="path200"
       inkscape:connector-curvature="0" /><path
       d="m 42,80.501 0,0.75 -0.75,0.75 0,5.25 -0.75,0.75 0,5.25 -0.75,0.75 0,4.5 -0.75,0.75 0,4.5 -0.75,0.75 0,3.75 -0.75,0.75 0,3.75 -0.75,0.75 0,4.5 -0.75,0.75 0,3.75 -0.75,0.75 0,5.25 -0.75,0.75 0,5.25 -0.75,0.75 0,5.25 -0.75,0.75 0,9 -0.75,0.75 0,22.5 0.75,0.75 0,9 0.75,0.75 0,6 0.75,0.75 0,2.25"
       style="fill:none;stroke:#6aa36a;stroke-width:0.50000101;stroke-linecap:butt;stroke-linejoin:round;stroke-miterlimit:10;stroke-opacity:1;stroke-dasharray:none"
       id="path202"
       inkscape:connector-curvature="0" /><path
       d="m 97,162.251 c 0,-0.138 -0.112,-0.25 -0.25,-0.25 -0.137,0 -0.25,0.112 -0.25,0.25 0,0.138 0.113,0.25 0.25,0.25 0.138,0 0.25,-0.112 0.25,-0.25"
       style="fill:#79a879;fill-opacity:1;fill-rule:nonzero;stroke:none"
       id="path204"
       inkscape:connector-curvature="0" /><path
       d="m 39,76.001 0,0.75 -0.75,0.75 0,3.75 -0.75,0.75 0,4.5 -0.75,0.75 0,3.75 -0.75,0.75 0,3.75 -0.75,0.75 0,3 -0.75,0.75 0,3.75 -0.75,0.75 0,3 -0.75,0.75 0,3.75 -0.75,0.75 0,3 -0.75,0.75 0,3.75 -0.75,0.75 0,3.75 -0.75,0.75 0,3.75 -0.75,0.75 0,4.5 -0.75,0.75 0,5.25 -0.75,0.75 0,8.25 -0.75,0.75 0,24.75 0.75,0.75 0,7.5 0.75,0.75 0,5.25 0.75,0.75 0,4.5 0.75,0.75"
       style="fill:none;stroke:#79a879;stroke-width:0.50000101;stroke-linecap:butt;stroke-linejoin:round;stroke-miterlimit:10;stroke-opacity:1;stroke-dasharray:none"
       id="path206"
       inkscape:connector-curvature="0" /><path
       d="m 97,162.251 c 0,-0.138 -0.112,-0.25 -0.25,-0.25 -0.137,0 -0.25,0.112 -0.25,0.25 0,0.138 0.113,0.25 0.25,0.25 0.138,0 0.25,-0.112 0.25,-0.25"
       style="fill:#86ac86;fill-opacity:1;fill-rule:nonzero;stroke:none"
       id="path208"
       inkscape:connector-curvature="0" /><path
       d="m 36,71.501 0,0.75 -0.75,0.75 0,3.75 -0.75,0.75 0,3 -0.75,0.75 0,3.75 -0.75,0.75 0,3 -0.75,0.75 0,2.25 -0.75,0.75 0,3 -0.75,0.75 0,3 -0.75,0.75 0,3 -0.75,0.75 0,2.25 -0.75,0.75 0,3 -0.75,0.75 0,3 -0.75,0.75 0,3 -0.75,0.75 0,3 -0.75,0.75 0,3.75 -0.75,0.75 0,3.75 -0.75,0.75 0,3.75 -0.75,0.75 0,5.25 -0.75,0.75 0,6.75 -0.75,0.75 0,27 0.75,0.75 0,6.75 0.75,0.75 0,5.25 0.75,0.75 0,3.75 0.75,0.75 0,3.75"
       style="fill:none;stroke:#86ac86;stroke-width:0.50000101;stroke-linecap:butt;stroke-linejoin:round;stroke-miterlimit:10;stroke-opacity:1;stroke-dasharray:none"
       id="path210"
       inkscape:connector-curvature="0" /><path
       d="m 97,162.251 c 0,-0.138 -0.112,-0.25 -0.25,-0.25 -0.137,0 -0.25,0.112 -0.25,0.25 0,0.138 0.113,0.25 0.25,0.25 0.138,0 0.25,-0.112 0.25,-0.25"
       style="fill:#90b090;fill-opacity:1;fill-rule:nonzero;stroke:none"
       id="path212"
       inkscape:connector-curvature="0" /><path
       d="m 33,67.001 0,0.75 -0.75,0.75 0,3.75 -0.75,0.75 0,2.25 -0.75,0.75 0,2.25 -0.75,0.75 0,3 -0.75,0.75 0,3 -0.75,0.75 0,2.25 -0.75,0.75 0,2.25 -0.75,0.75 0,3 -0.75,0.75 0,2.25 -0.75,0.75 0,1.5 -0.75,0.75 0,3 -0.75,0.75 0,2.25 -0.75,0.75 0,2.25 -0.75,0.75 0,3 -0.75,0.75 0,3 -0.75,0.75 0,3 -0.75,0.75 0,3 -0.75,0.75 0,3.75 -0.75,0.75 0,3.75 -0.75,0.75 0,4.5 -0.75,0.75 0,6.75 -0.75,0.75 0,28.5 0.75,0.75 0,6.75 0.75,0.75 0,4.5 0.75,0.75 0,3.75 0.75,0.75 0,3.75 0.75,0.75 0,1.5"
       style="fill:none;stroke:#90b090;stroke-width:0.50000101;stroke-linecap:butt;stroke-linejoin:round;stroke-miterlimit:10;stroke-opacity:1;stroke-dasharray:none"
       id="path214"
       inkscape:connector-curvature="0" /><path
       d="m 97,162.251 c 0,-0.138 -0.112,-0.25 -0.25,-0.25 -0.137,0 -0.25,0.112 -0.25,0.25 0,0.138 0.113,0.25 0.25,0.25 0.138,0 0.25,-0.112 0.25,-0.25"
       style="fill:#99b299;fill-opacity:1;fill-rule:nonzero;stroke:none"
       id="path216"
       inkscape:connector-curvature="0" /><path
       style="fill:none;fill-opacity:0.42786068999999999;stroke:#99b299;stroke-width:0.50000100999999997;stroke-linecap:butt;stroke-linejoin:round;stroke-miterlimit:10;stroke-opacity:1;stroke-dasharray:none"
       d="m 30,62.501 0,0.75 -0.75,0.75 0,3 -0.75,0.75 0,2.25 -0.75,0.75 0,2.25 -0.75,0.75 0,3 -0.75,0.75 0,1.5 -0.75,0.75 0,3 -0.75,0.75 0,1.5 -0.75,0.75 0,2.25 -0.75,0.75 0,2.25 -0.75,0.75 0,2.25 -0.75,0.75 0,1.5 -0.75,0.75 0,2.25 -0.75,0.75 0,2.25 -0.75,0.75 0,2.25 -0.75,0.75 0,2.25 -0.75,0.75 0,2.25 -0.75,0.75 0,2.25 -0.75,0.75 0,3 -0.75,0.75 0,3 -0.75,0.75 0,3 -0.75,0.75 0,3 -0.75,0.75 0,3.75 -0.75,0.75 0,4.5 -0.75,0.75 0,6.75 -0.75,0.75 0,14.25 -0.75,0.75 0.75,0.75 0,14.25 0.75,0.75 0,6.75 0.75,0.75 0,4.5 0.75,0.75 0,3.75 0.75,0.75 0,3 0.75,0.75 0,3 0.75,0.75"
       id="path218" /><path
       d="m 97,162.251 c 0,-0.138 -0.112,-0.25 -0.25,-0.25 -0.137,0 -0.25,0.112 -0.25,0.25 0,0.138 0.113,0.25 0.25,0.25 0.138,0 0.25,-0.112 0.25,-0.25"
       style="fill:#a0b5a0;fill-opacity:1;fill-rule:nonzero;stroke:none"
       id="path220"
       inkscape:connector-curvature="0" /><path
       d="m 27,58.001 0,1.5 -0.75,0.75 0,2.25 -0.75,0.75 0,2.25 -0.75,0.75 0,1.5 -0.75,0.75 0,2.25 -0.75,0.75 0,2.25 -0.75,0.75 0,1.5 -0.75,0.75 0,2.25 -0.75,0.75 0,1.5 -0.75,0.75 0,2.25 -0.75,0.75 0,1.5 -0.75,0.75 0,2.25 -0.75,0.75 0,2.25 -0.75,0.75 0,1.5 -0.75,0.75 0,1.5 -0.75,0.75 0,2.25 -0.75,0.75 0,2.25 -0.75,0.75 0,1.5 -0.75,0.75 0,2.25 -0.75,0.75 0,3 -0.75,0.75 0,2.25 -0.75,0.75 0,2.25 -0.75,0.75 0,86.25"
       style="fill:none;stroke:#a0b5a0;stroke-width:0.50000101;stroke-linecap:butt;stroke-linejoin:round;stroke-miterlimit:10;stroke-opacity:1;stroke-dasharray:none"
       id="path222"
       inkscape:connector-curvature="0" /><path
       d="m 97,162.251 c 0,-0.138 -0.112,-0.25 -0.25,-0.25 -0.137,0 -0.25,0.112 -0.25,0.25 0,0.138 0.113,0.25 0.25,0.25 0.138,0 0.25,-0.112 0.25,-0.25"
       style="fill:#a6b7a6;fill-opacity:1;fill-rule:nonzero;stroke:none"
       id="path224"
       inkscape:connector-curvature="0" /><path
       d="m 24,53.5 0,1.5 -0.75,0.75 0,1.501 -0.75,0.75 0,2.25 -0.75,0.75 0,1.5 -0.75,0.75 0,2.25 -0.75,0.75 0,2.25 -0.75,0.75 0,1.5 -0.75,0.75 0,1.5 -0.75,0.75 0,2.25 -0.75,0.75 0,1.5 -0.75,0.75 0,1.5 -0.75,0.75 0,1.5 -0.75,0.75 0,2.25 -0.75,0.75 0,1.5 -0.75,0.75 0,1.5 -0.75,0.75 0,1.5 -0.75,0.75 0,2.25 -0.75,0.75 0,1.5 -0.75,0.75 0,2.25"
       style="fill:none;stroke:#a6b7a6;stroke-width:0.50000101;stroke-linecap:butt;stroke-linejoin:round;stroke-miterlimit:10;stroke-opacity:1;stroke-dasharray:none"
       id="path226"
       inkscape:connector-curvature="0" /><path
       d="m 97,162.251 c 0,-0.138 -0.112,-0.25 -0.25,-0.25 -0.137,0 -0.25,0.112 -0.25,0.25 0,0.138 0.113,0.25 0.25,0.25 0.138,0 0.25,-0.112 0.25,-0.25"
       style="fill:#aab8aa;fill-opacity:1;fill-rule:nonzero;stroke:none"
       id="path228"
       inkscape:connector-curvature="0" /><path
       d="m 21,49 0,1.5 -0.75,0.75 0,1.5 -0.75,0.75 0,2.25 -0.75,0.751 0,1.5 -0.75,0.75 0,1.5 -0.75,0.75 0,2.25 -0.75,0.75 0,1.5 -0.75,0.75 0,1.5 -0.75,0.75 0,1.5 -0.75,0.75 0,1.5 -0.75,0.75 0,1.5 -0.75,0.75 0,1.5 -0.75,0.75 0,1.5 -0.75,0.75 0,1.5 -0.75,0.75 0,1.5"
       style="fill:none;stroke:#aab8aa;stroke-width:0.50000101;stroke-linecap:butt;stroke-linejoin:round;stroke-miterlimit:10;stroke-opacity:1;stroke-dasharray:none"
       id="path230"
       inkscape:connector-curvature="0" /><path
       d="m 97,162.251 c 0,-0.138 -0.112,-0.25 -0.25,-0.25 -0.137,0 -0.25,0.112 -0.25,0.25 0,0.138 0.113,0.25 0.25,0.25 0.138,0 0.25,-0.112 0.25,-0.25"
       style="fill:#aebaae;fill-opacity:1;fill-rule:nonzero;stroke:none"
       id="path232"
       inkscape:connector-curvature="0" /><path
       d="m 18,44.5 0,1.5 -0.75,0.75 0,1.5 -0.75,0.75 0,1.5 -0.75,0.75 0,1.5 -0.75,0.75 0,1.5 -0.75,0.75 0,1.501 -0.75,0.75 0,2.25 -0.75,0.75 0,0.75 -0.75,0.75 0,1.5 -0.75,0.75 0,1.5 -0.75,0.75 0,1.5"
       style="fill:none;stroke:#aebaae;stroke-width:0.50000101;stroke-linecap:butt;stroke-linejoin:round;stroke-miterlimit:10;stroke-opacity:1;stroke-dasharray:none"
       id="path234"
       inkscape:connector-curvature="0" /><path
       d="m 97,162.251 c 0,-0.138 -0.112,-0.25 -0.25,-0.25 -0.137,0 -0.25,0.112 -0.25,0.25 0,0.138 0.113,0.25 0.25,0.25 0.138,0 0.25,-0.112 0.25,-0.25"
       style="fill:#b1bbb1;fill-opacity:1;fill-rule:nonzero;stroke:none"
       id="path236"
       inkscape:connector-curvature="0" /><path
       d="m 15,40 0,1.5 -0.75,0.75 0,1.5 -0.75,0.75 0,1.5 -0.75,0.75 0,1.5 L 12,49 l 0,1.5 -0.75,0.75 0,0.75 -0.75,0.75 0,2.25"
       style="fill:none;stroke:#b1bbb1;stroke-width:0.50000101;stroke-linecap:butt;stroke-linejoin:round;stroke-miterlimit:10;stroke-opacity:1;stroke-dasharray:none"
       id="path238"
       inkscape:connector-curvature="0" /><path
       d="m 97,162.251 c 0,-0.138 -0.112,-0.25 -0.25,-0.25 -0.137,0 -0.25,0.112 -0.25,0.25 0,0.138 0.113,0.25 0.25,0.25 0.138,0 0.25,-0.112 0.25,-0.25"
       style="fill:#b4bbb4;fill-opacity:1;fill-rule:nonzero;stroke:none"
       id="path240"
       inkscape:connector-curvature="0" /><path
       d="m 12,36.25 0,0.75 -0.75,0.75 0,1.5 -0.75,0.75 0,1.5"
       style="fill:none;stroke:#b4bbb4;stroke-width:0.50000101;stroke-linecap:butt;stroke-linejoin:round;stroke-miterlimit:10;stroke-opacity:1;stroke-dasharray:none"
       id="path242"
       inkscape:connector-curvature="0" /><path
       d="m 97,162.251 c 0,-0.138 -0.112,-0.25 -0.25,-0.25 -0.137,0 -0.25,0.112 -0.25,0.25 0,0.138 0.113,0.25 0.25,0.25 0.138,0 0.25,-0.112 0.25,-0.25"
       style="fill:#b6bcb6;fill-opacity:1;fill-rule:nonzero;stroke:none"
       id="path244"
       inkscape:connector-curvature="0" /><path
       d="m 97,162.251 c 0,-0.138 -0.112,-0.25 -0.25,-0.25 -0.137,0 -0.25,0.112 -0.25,0.25 0,0.138 0.113,0.25 0.25,0.25 0.138,0 0.25,-0.112 0.25,-0.25"
       style="fill:#b8bdb8;fill-opacity:1;fill-rule:nonzero;stroke:none"
       id="path246"
       inkscape:connector-curvature="0" /><path
       d="M 10.5,33.25 30.537177,63.21888 96.75,162.251 10.224584,205.10516"
       style="fill:none;stroke:#0000ff;stroke-width:0.50000101;stroke-linecap:butt;stroke-linejoin:round;stroke-miterlimit:10;stroke-opacity:1;stroke-dasharray:0.5, 4;stroke-dashoffset:0"
       id="path248"
       inkscape:connector-curvature="0"
       sodipodi:nodetypes="cccc" /><g
       clip-path="url(#clipPath256)"
       id="g254"
       transform="matrix(0.1,0,0,0.1,-174,-260)"><path
         inkscape:connector-curvature="0"
         id="path260"
         style="fill:none;stroke:#0000ff;stroke-width:5.00001001;stroke-linecap:butt;stroke-linejoin:round;stroke-miterlimit:10;stroke-opacity:1;stroke-dasharray:none"
         d="m 2737.5,4222.51 c 0,-16.57 -13.43,-30 -30,-30 -16.56,0 -30,13.43 -30,30 0,16.56 13.44,30 30,30 16.57,0 30,-13.44 30,-30"
         sodipodi:nodetypes="csssc" /><path
         inkscape:connector-curvature="0"
         id="path262"
         style="fill:none;stroke:#000000;stroke-width:5.00001001;stroke-linecap:butt;stroke-linejoin:round;stroke-miterlimit:10;stroke-opacity:1;stroke-dasharray:none"
         d="m 1845,2722.5 2572.5,0 0,2572.51 -2572.5,0 0,-2572.51 z" /></g></g></svg>